<?xml version="1.0" encoding="utf-8"?>
<!-- Generator: Adobe Illustrator 28.2.0, SVG Export Plug-In . SVG Version: 6.00 Build 0)  -->
<svg version="1.0" id="Layer_1" xmlns="http://www.w3.org/2000/svg" xmlns:xlink="http://www.w3.org/1999/xlink" x="0px" y="0px"
	 viewBox="0 0 424 210" enable-background="new 0 0 424 210" xml:space="preserve">
<g>
	<g>
		<g>
			<g>
				<path fill="#11A8C8" d="M136.3,163c-4.2,0-8.2-1.6-11.1-4.6c-3-3-4.6-6.9-4.6-11.1c0-4.2,1.6-8.1,4.6-11.1c3-3,6.9-4.6,11.1-4.6
					c4.2,0,8.1,1.6,11.1,4.6c6.1,6.1,6.1,16.1,0,22.2C144.5,161.4,140.5,163,136.3,163z"/>
			</g>
			<g>
				<path fill="#11A8C8" d="M50.9,79.2c-4.2,0-8.2-1.6-11.1-4.6c-3-3-4.6-6.9-4.6-11.1c0-4.2,1.6-8.1,4.6-11.1c3-3,6.9-4.6,11.1-4.6
					c4.2,0,8.1,1.6,11.1,4.6c3,3,4.6,6.9,4.6,11.1c0,4.2-1.6,8.2-4.6,11.1C59,77.5,55.1,79.2,50.9,79.2z"/>
			</g>
			<path fill="#11A8C8" d="M135.6,78.7c-4.2,0-8.2-1.6-11.1-4.6c-6.1-6.1-6.1-16.1,0-22.2c3-3,6.9-4.6,11.1-4.6
				c4.2,0,8.1,1.6,11.1,4.6c6.1,6.1,6.1,16.1,0,22.2C143.8,77.1,139.8,78.7,135.6,78.7z"/>
			<g>
				<path fill="#11A8C8" d="M51.3,163c-4.2,0-8.2-1.6-11.1-4.6c-3-3-4.6-6.9-4.6-11.1c0-4.2,1.6-8.1,4.6-11.1
					c0.6-0.6,1.3-1.2,2.2-1.8c0.3-0.2,0.5-0.3,0.8-0.5c0.6-0.3,1.2-0.6,1.7-0.9c0.3-0.1,0.6-0.3,0.9-0.4c0.6-0.2,1.2-0.4,1.9-0.6
					c0.1,0,0.3-0.1,0.4-0.1c0.1,0,0.2,0,0.2-0.1l3.5-0.2c0.4,0,0.9,0.1,1.4,0.1l0.2,0c0.1,0,0.3,0,0.4,0l0.1,0l0.2,0h0.1
					c0.3,0,0.5,0,0.8,0c6,0,12-2.6,16.3-7c4.3-4.5,6.7-10.5,6.6-16.5l0-0.2l0-0.2c0-0.2,0-0.3-0.1-0.5c0-0.2,0-0.4-0.1-0.6l0-0.4
					c0-0.3-0.1-0.6-0.1-0.9l0.3-3.5c0-0.1,0-0.2,0.1-0.3l0.1-0.2c0.2-0.7,0.3-1.3,0.6-2c0.1-0.4,0.3-0.6,0.4-0.9
					c0.3-0.6,0.6-1.2,0.9-1.7c0.1-0.2,0.3-0.5,0.5-0.7c0.6-0.9,1.2-1.6,1.8-2.2c3-3,6.9-4.6,11.1-4.6c4.2,0,8.2,1.6,11.1,4.6
					c6.1,6.1,6.1,16.1,0,22.2c-0.6,0.6-1.3,1.2-2.2,1.8c-0.3,0.2-0.5,0.3-0.8,0.5c-0.6,0.3-1.1,0.6-1.7,0.9
					c-0.3,0.1-0.6,0.3-0.9,0.4c-0.6,0.2-1.2,0.4-1.9,0.6l-0.4,0.1c-0.1,0-0.2,0.1-0.3,0.1l-3.5,0.3c-0.4,0-0.8-0.1-1.3-0.1l-0.3,0
					c-0.1,0-0.3,0-0.4,0l-0.1,0l-0.2,0h-0.1c-0.3,0-0.5,0-0.8,0c-6,0-12,2.6-16.3,7c-4.3,4.5-6.7,10.5-6.6,16.5l0,0.2l0,0.2
					c0,0.2,0,0.3,0.1,0.5c0,0.2,0,0.4,0.1,0.6c0,0.1,0,0.3,0.1,0.5c0,0.2,0.1,0.5,0.1,0.7v0.1l-0.3,3.4c0,0.1-0.1,0.5-0.2,0.6
					c-0.2,0.7-0.4,1.4-0.6,1.9c-0.1,0.3-0.2,0.6-0.4,0.9c-0.3,0.6-0.6,1.2-0.9,1.8c-0.1,0.2-0.3,0.5-0.5,0.8
					c-0.6,0.8-1.2,1.6-1.8,2.2C59.5,161.4,55.5,163,51.3,163L51.3,163z"/>
			</g>
			<path fill="#11A8C8" d="M93.8,163c-4.2,0-8.2-1.6-11.1-4.6c-3-3-4.6-6.9-4.6-11.1c0-4.2,1.6-8.1,4.6-11.1
				c0.6-0.6,1.3-1.2,2.2-1.8c0.2-0.2,0.5-0.3,0.7-0.5c0.6-0.3,1.1-0.6,1.7-0.9c0.3-0.1,0.6-0.3,0.9-0.4c0.6-0.2,1.2-0.4,1.9-0.6
				c0,0,0.6-0.2,0.6-0.2l3.6-0.3c0.4,0,0.9,0.1,1.3,0.1l0.3,0c0.2,0,0.3,0,0.5,0c0.1,0,0.1,0,0.2,0l0.1,0l0.1,0c0.3,0,0.5,0,0.8,0
				c6,0,12-2.6,16.3-7c4.3-4.5,6.7-10.5,6.6-16.5l0-0.7l-0.1-0.1c0,0,0-0.1,0-0.1c0-0.2,0-0.3,0-0.5l-0.1-0.5c0-0.3-0.1-0.6-0.1-0.8
				l0.2-3.4c0-0.1,0.1-0.5,0.2-0.6c0.2-0.8,0.4-1.4,0.6-1.9c0.1-0.3,0.2-0.6,0.4-0.9c0.3-0.5,0.5-1.1,0.9-1.7l0.1-0.1
				c0.1-0.2,0.2-0.4,0.4-0.6c0.6-0.9,1.2-1.6,1.8-2.2c3-3,6.9-4.6,11.1-4.6c4.2,0,8.1,1.6,11.1,4.6c6.1,6.1,6.1,16.1,0,22.2
				c-0.6,0.6-1.3,1.2-2.2,1.8c-0.2,0.1-0.3,0.2-0.5,0.3l-0.3,0.2c-0.5,0.3-1.1,0.6-1.7,0.9c-0.3,0.1-0.6,0.3-0.9,0.4
				c-0.6,0.2-1.2,0.4-1.9,0.6c-0.2,0-0.3,0.1-0.4,0.1c-0.1,0-0.2,0-0.2,0.1l-3.5,0.2c-0.5,0-1.1-0.1-1.6-0.2c-0.2,0-0.3,0-0.5,0
				c-0.1,0-0.1,0-0.2,0l-0.3,0c-0.3,0-0.5,0-0.8,0c-6,0-12,2.6-16.3,7c-4.3,4.5-6.7,10.5-6.5,16.5l0,0.2l0,0.2c0,0.2,0,0.4,0.1,0.5
				c0,0.2,0,0.4,0,0.5c0,0.1,0,0.3,0.1,0.5c0,0.3,0.1,0.5,0.1,0.8l-0.3,3.5c0,0.1-0.2,0.5-0.2,0.5c-0.2,0.7-0.4,1.4-0.6,2
				c-0.1,0.3-0.2,0.6-0.4,0.8l0,0.1c-0.3,0.6-0.6,1.1-0.9,1.7c-0.2,0.3-0.3,0.5-0.5,0.8c-0.6,0.9-1.2,1.6-1.8,2.2
				C101.9,161.4,98,163,93.8,163L93.8,163z"/>
			<path fill="#11A8C8" d="M51.3,120.6c-4.2,0-8.2-1.6-11.1-4.6c-3-3-4.6-6.9-4.6-11.1c0-4.2,1.6-8.1,4.6-11.1
				c0.6-0.6,1.3-1.2,2.2-1.8c0.2-0.2,0.5-0.3,0.8-0.5c0.5-0.3,1.1-0.6,1.7-0.9c0.3-0.1,0.6-0.3,0.9-0.4c0.6-0.2,1.2-0.4,1.9-0.5
				l0.4-0.1c0.1,0,0.1,0,0.2-0.1l3.6-0.3c0.5,0,1,0.1,1.5,0.2l0.1,0c0.2,0,0.3,0,0.5,0c0.1,0,0.1,0,0.2,0l0.2,0l0.1,0
				c0.3,0,0.5,0,0.8,0c6,0,12-2.6,16.3-7c4.3-4.5,6.7-10.5,6.5-16.5l0-0.2l0-0.2c0-0.2,0-0.4-0.1-0.6c0-0.2,0-0.3,0-0.5L77.8,64
				c0-0.3-0.1-0.6-0.1-0.9l0.2-3.3l0-0.1v-0.1c0-0.1,0.1-0.5,0.1-0.5c0.2-0.8,0.4-1.5,0.6-2c0.1-0.3,0.3-0.6,0.4-0.9
				c0.3-0.6,0.6-1.1,0.9-1.7l0.1-0.1c0.1-0.2,0.3-0.5,0.4-0.7c0.6-0.9,1.2-1.6,1.8-2.2c3-3,6.9-4.6,11.1-4.6c4.2,0,8.2,1.6,11.1,4.6
				c6.1,6.1,6.1,16.1,0,22.2c-0.6,0.6-1.3,1.2-2.2,1.8c-0.2,0.2-0.4,0.3-0.7,0.4l-0.1,0.1c-0.6,0.3-1.1,0.6-1.7,0.9
				c-0.3,0.1-0.6,0.3-0.9,0.4c-0.6,0.2-1.2,0.4-1.9,0.6c-0.1,0-0.3,0.1-0.4,0.1c-0.1,0-0.2,0-0.2,0.1l-3.5,0.2
				c-0.4,0-0.9-0.1-1.4-0.1l-0.2,0c-0.2,0-0.3,0-0.5,0c-0.1,0-0.1,0-0.2,0l-0.1,0l-0.2,0c-0.3,0-0.5,0-0.8,0c-6,0-12,2.6-16.3,7
				c-4.3,4.5-6.7,10.5-6.6,16.5l0,0.2l0,0.2c0,0.2,0,0.4,0.1,0.5c0,0.2,0,0.4,0,0.6c0,0.1,0,0.3,0.1,0.5c0,0.3,0.1,0.5,0.1,0.8
				l-0.3,3.4c0,0.1,0,0.2-0.1,0.3l-0.1,0.3c-0.2,0.8-0.4,1.4-0.6,2c-0.1,0.3-0.3,0.6-0.4,0.9c-0.3,0.6-0.6,1.1-0.9,1.7
				c-0.2,0.3-0.3,0.5-0.5,0.8c-0.6,0.9-1.2,1.6-1.8,2.2C59.4,118.9,55.5,120.6,51.3,120.6L51.3,120.6z"/>
		</g>
	</g>
</g>
<g>
	<path fill="#2C2C2C" d="M195.6,62.7c0.6-0.1,1.1-0.2,1.7-0.2c0.6,0,1.1,0,1.7,0c0.5,0,1.1,0,1.8,0.1c0.7,0.1,1.3,0.2,1.8,0.4
		l0.3,0.4l-9.6,34.2c-0.9,0.1-1.9,0.2-3,0.2c-1.1,0-2.2,0.1-3.2,0.1c-1.5,0-2.6-0.2-3.4-0.7s-1.4-1.4-1.8-2.8l-8.6-30.9
		c0.7-0.3,1.4-0.6,2.2-0.8c0.8-0.2,1.6-0.3,2.5-0.3c1.2,0,2.1,0.3,2.7,0.9c0.6,0.6,1.1,1.6,1.5,2.9l4.1,15c0.3,1,0.5,2,0.8,3
		s0.5,2.1,0.7,3.1s0.4,2.1,0.6,3c0.1,0.3,0.1,0.4,0.2,0.5s0.2,0.1,0.3,0.1L195.6,62.7z"/>
	<path fill="#2C2C2C" d="M207.4,62.7c0.6-0.1,1.3-0.2,2.1-0.2c0.8,0,1.4-0.1,1.8-0.1c0.5,0,1.2,0,1.9,0.1c0.7,0,1.4,0.1,2,0.2v34.8
		c-0.6,0.1-1.3,0.2-2,0.2c-0.7,0-1.3,0.1-1.9,0.1c-0.5,0-1.1,0-1.8-0.1c-0.8,0-1.4-0.1-2.1-0.2V62.7z"/>
	<path fill="#2C2C2C" d="M219.8,69.2c-0.1-0.6-0.2-1.1-0.2-1.7c0-0.6-0.1-1.1-0.1-1.5s0-1,0.1-1.5c0-0.6,0.1-1.2,0.2-1.7h25
		c0.3,0.9,0.4,1.9,0.4,3c0,1.3-0.3,2.2-1,2.7c-0.7,0.5-1.7,0.8-3.1,0.8h-1.7c-0.4,0-0.9,0-1.6,0s-1.2,0-1.6,0h-7.8
		c-0.4,0-0.9,0-1.6,0c-0.7,0-1.2,0-1.6,0H219.8z M228.4,72.9c0-0.7,0-1.3,0-1.9c0-0.6,0-1.2,0-1.9v-3.2h7.7v3.2c0,0.7,0,1.3,0,1.9
		c0,0.6,0,1.2,0,1.9v24.6c-0.7,0.1-1.3,0.2-2,0.2c-0.7,0-1.3,0.1-1.9,0.1c-0.5,0-1.1,0-1.8-0.1c-0.7,0-1.4-0.1-2.1-0.2V72.9z"/>
	<path fill="#2C2C2C" d="M253.9,62.7c0.6-0.1,1.4-0.2,2.2-0.2c0.9-0.1,1.6-0.1,2.3-0.1c0.6,0,1.4,0,2.3,0.1c0.9,0.1,1.6,0.1,2.2,0.3
		l11,34.3c-0.5,0.3-1.2,0.5-2.1,0.7c-0.9,0.2-1.6,0.2-2.4,0.2c-1.2,0-2.2-0.3-2.9-0.9c-0.7-0.6-1.3-1.7-1.8-3.4l-3.9-13.6
		c-0.4-1.4-0.9-3.1-1.4-5c-0.5-1.9-1-3.7-1.4-5.3h-0.3c-0.3,1.4-0.6,3-1.1,4.7s-0.9,3.3-1.3,4.7l-5.5,18.3c-0.5,0.1-1,0.2-1.6,0.2
		c-0.6,0-1.1,0.1-1.7,0.1c-0.6,0-1.3,0-2-0.1c-0.7-0.1-1.3-0.2-1.8-0.4l-0.3-0.4L253.9,62.7z M254.3,90.1c-0.2,0-0.5,0-0.9,0
		c-0.3,0-0.7,0-1,0c-0.3,0-0.6,0-0.9,0h-4.1l2.4-6.1h3.5c0.2,0,0.5,0,0.8,0c0.3,0,0.6,0,1,0c0.3,0,0.6,0,0.8,0h3.9
		c0.2,0,0.5,0,0.8,0c0.3,0,0.6,0,1,0c0.3,0,0.6,0,0.8,0h3.7l2,6.1h-4c-0.2,0-0.5,0-0.9,0c-0.3,0-0.7,0-1,0c-0.3,0-0.6,0-0.9,0H254.3
		z"/>
	<path fill="#2C2C2C" d="M173.5,144.5c0.1-1.1,0.4-2.2,1-3.3c0.6-1.1,1.3-1.9,2-2.6c1.4,0.9,3.1,1.6,4.9,2.3c1.8,0.7,3.6,1,5.4,1
		c1.6,0,2.7-0.4,3.4-1.1s1.1-1.6,1.1-2.5c0-0.6-0.2-1.3-0.6-2.1c-0.4-0.7-1.3-1.4-2.8-2l-6.1-2.6c-2.1-0.9-3.8-2.1-5.2-3.5
		c-1.4-1.5-2.1-3.4-2.1-5.8c0-2.1,0.5-3.9,1.6-5.5c1.1-1.6,2.6-2.8,4.4-3.7c1.9-0.9,3.9-1.3,6.2-1.3c2.4,0,4.6,0.3,6.7,0.9
		c2.1,0.6,3.8,1.3,5.1,2c-0.1,1.1-0.3,2.2-0.8,3.2c-0.5,1-1.1,1.9-1.8,2.6c-1.3-0.6-2.8-1.2-4.5-1.7c-1.7-0.5-3.3-0.8-4.6-0.8
		c-1.5,0-2.6,0.3-3.3,1s-1,1.4-1,2.2c0,0.7,0.2,1.3,0.7,1.9c0.5,0.5,1.3,1,2.4,1.5l6.2,2.6c1.6,0.7,3,1.5,4.1,2.5
		c1.1,1,2,2.1,2.6,3.4c0.6,1.3,0.9,2.6,0.9,4.1c0,2-0.5,3.9-1.5,5.5c-1,1.6-2.4,2.9-4.4,3.9s-4.4,1.4-7.4,1.4c-2.1,0-4.3-0.3-6.6-1
		C177.5,146.6,175.4,145.7,173.5,144.5z"/>
	<path fill="#2C2C2C" d="M205,113.1l0.4-0.4h7.3v6.4c0,0.7,0,1.3,0,1.9c0,0.5,0,1.2,0,1.9v14.8c0,0.6,0,1.2,0,1.7c0,0.5,0,1.1,0,1.8
		v6.5h-3.2c-1.4,0-2.5-0.4-3.3-1.2c-0.8-0.8-1.2-1.9-1.2-3.3V113.1z M227.1,112.7c0.1,0.6,0.2,1.1,0.2,1.6c0,0.5,0.1,1,0.1,1.4
		c0,0.4-0.1,1-0.2,1.6c-0.1,0.6-0.3,1.3-0.5,1.8h-10.7c-0.4,0-1,0-1.8,0c-0.8,0-1.5,0-2.3,0c-0.8,0-1.5,0-2-0.1v-6.4H227.1z
		 M224.1,126.9c0.2,0.5,0.3,1,0.3,1.6c0.1,0.6,0.1,1.1,0.1,1.5c0,0.4,0,1-0.1,1.5c-0.1,0.6-0.2,1.1-0.3,1.6h-8c-0.4,0-1,0-1.8,0
		c-0.8,0-1.5,0-2.3,0s-1.5,0-2,0v-6.2c0.5,0,1.2,0,2,0c0.8,0,1.6,0,2.3,0c0.8,0,1.3,0,1.8,0H224.1z M228.4,141.1
		c0,2.2-0.3,3.8-1,4.9c-0.7,1.1-2,1.6-4.1,1.6H210v-6.3c1.1-0.1,2.1-0.1,3-0.2s2.1-0.1,3.3-0.1H228.4z"/>
	<path fill="#2C2C2C" d="M260.2,115.6c-0.1,1.1-0.5,2.2-1.2,3.3c-0.7,1.1-1.5,1.8-2.3,2.4c-1.2-0.8-2.6-1.5-4.1-2
		c-1.5-0.5-2.9-0.8-4.4-0.8c-1.7,0-3.2,0.4-4.5,1.2c-1.3,0.8-2.3,2.1-3,3.9c-0.7,1.8-1.1,4-1.1,6.9c0,4,0.8,7,2.3,8.9
		s3.7,2.8,6.5,2.8c1.7,0,3.2-0.2,4.5-0.5c1.4-0.3,2.5-0.6,3.3-0.9l4.1,5.4c-1,0.3-2.2,0.7-3.5,1c-1.4,0.3-2.9,0.6-4.5,0.8
		c-1.6,0.2-3.4,0.3-5.2,0.3c-2.6,0-4.9-0.4-6.8-1.3c-1.9-0.9-3.5-2.1-4.8-3.6c-1.3-1.6-2.2-3.5-2.8-5.7s-0.9-4.7-0.9-7.4
		c0-3.1,0.5-5.8,1.4-8.1c0.9-2.3,2.1-4.2,3.6-5.7c1.5-1.5,3.3-2.7,5.2-3.4c1.9-0.7,3.9-1.1,5.9-1.1c2.3,0,4.5,0.3,6.7,1
		C256.6,113.6,258.5,114.5,260.2,115.6z M255.2,128c2,0,3.3,0.4,4.1,1.3s1.1,2.1,1.1,3.5v1.7h-10c-0.8,0-1.5-0.1-2.1-0.3
		c-0.6-0.2-1-0.5-1.3-1s-0.4-1.1-0.4-1.9c0-0.5,0.1-1.1,0.2-1.7c0.1-0.6,0.2-1.1,0.4-1.6H255.2z M253,137.9c0-1.2,0-2.5,0.1-3.8
		c0.1-1.3,0.3-2.5,0.6-3.6l6.6,2.2v13.4l-7.3,0.1V137.9z"/>
	<path fill="#2C2C2C" d="M293.9,134.8c0,2.9-0.5,5.3-1.6,7.3c-1.1,2-2.6,3.5-4.7,4.6s-4.5,1.6-7.4,1.6c-2.9,0-5.4-0.5-7.4-1.6
		c-2-1.1-3.6-2.6-4.7-4.6c-1.1-2-1.6-4.5-1.6-7.3v-22l0.3-0.4h2.9c1.5,0,2.7,0.4,3.4,1.2c0.8,0.8,1.2,2,1.2,3.8v17.5
		c0,2.4,0.5,4.2,1.4,5.4c0.9,1.2,2.4,1.8,4.5,1.8c2.1,0,3.6-0.6,4.5-1.8c0.9-1.2,1.4-3,1.4-5.4v-22.1c0.6-0.1,1.3-0.2,2-0.2
		c0.7,0,1.3-0.1,1.8-0.1c0.5,0,1.1,0,1.9,0.1c0.8,0,1.5,0.1,2.1,0.2V134.8z"/>
	<path fill="#2C2C2C" d="M326.1,123.4c0,1.6-0.3,3.1-0.9,4.3c-0.6,1.3-1.4,2.3-2.4,3.1c-1,0.8-2,1.5-3,1.8c1,0.3,1.7,0.9,2.4,1.7
		s1.1,1.8,1.5,2.9l1.6,4.5c0.3,0.8,0.6,1.6,1.1,2.2c0.4,0.6,0.9,1.1,1.4,1.6c-0.5,0.7-1.2,1.2-2.2,1.6s-2,0.7-3,0.7
		c-1.4,0-2.4-0.4-3.1-1.1c-0.6-0.8-1.2-1.9-1.7-3.4l-1.9-5.5c-0.3-0.9-0.8-1.7-1.4-2.4c-0.6-0.7-1.6-1-3-1h-5.6v-5.8
		c0.7,0,1.5-0.1,2.5-0.1s1.9-0.1,2.8-0.1c0.9,0,1.5,0,1.9,0c1.3,0,2.4-0.2,3.1-0.7c0.7-0.5,1.2-1.1,1.5-1.9c0.3-0.8,0.4-1.6,0.4-2.5
		c0-0.9-0.1-1.8-0.4-2.5c-0.3-0.8-0.8-1.4-1.5-1.8c-0.7-0.5-1.8-0.7-3.1-0.7c-0.4,0-0.8,0-1.2,0c-0.4,0-0.9,0-1.4,0
		c-0.5,0-1,0-1.5,0v29.2c-0.6,0.1-1.3,0.2-2,0.2c-0.7,0-1.3,0.1-1.9,0.1c-0.5,0-1.1,0-1.8-0.1c-0.7,0-1.4-0.1-2-0.2V113l0.4-0.3
		c2.1-0.1,4.2-0.1,6.2-0.1c2,0,3.9-0.1,5.8-0.1c2.4,0,4.5,0.4,6.3,1.2c1.9,0.8,3.3,2,4.4,3.6S326.1,120.9,326.1,123.4z"/>
	<path fill="#2C2C2C" d="M329.9,130.1c0-3.6,0.5-6.8,1.6-9.5c1.1-2.7,2.7-4.8,5-6.3c2.2-1.5,5-2.3,8.4-2.3c3.4,0,6.3,0.8,8.5,2.3
		c2.2,1.5,3.9,3.7,4.9,6.4c1.1,2.7,1.6,5.9,1.6,9.5c0,3.6-0.5,6.8-1.6,9.5s-2.7,4.9-5,6.4c-2.2,1.5-5,2.3-8.5,2.3
		c-2.6,0-4.8-0.4-6.7-1.3c-1.9-0.9-3.4-2.1-4.7-3.7c-1.2-1.6-2.2-3.5-2.8-5.8C330.2,135.2,329.9,132.8,329.9,130.1z M338,130.1
		c0,1.4,0.1,2.8,0.2,4.2s0.5,2.7,0.9,4s1.2,2.2,2.1,2.9s2.1,1.1,3.6,1.1c1.5,0,2.7-0.4,3.6-1.1c0.9-0.7,1.6-1.7,2.1-2.9
		c0.5-1.2,0.8-2.5,0.9-4c0.2-1.4,0.2-2.8,0.2-4.2s-0.1-2.8-0.2-4.2c-0.2-1.4-0.5-2.7-0.9-3.9c-0.5-1.2-1.2-2.2-2.1-2.9
		c-0.9-0.7-2.1-1.1-3.6-1.1c-1.5,0-2.7,0.4-3.6,1.1s-1.6,1.7-2.1,2.9c-0.5,1.2-0.8,2.5-0.9,3.9C338.1,127.3,338,128.7,338,130.1z"/>
	<path fill="#2C2C2C" d="M362.8,144.5c0.1-1.1,0.4-2.2,1-3.3c0.6-1.1,1.3-1.9,2-2.6c1.4,0.9,3.1,1.6,4.9,2.3c1.8,0.7,3.6,1,5.4,1
		c1.6,0,2.7-0.4,3.4-1.1c0.7-0.7,1.1-1.6,1.1-2.5c0-0.6-0.2-1.3-0.6-2.1c-0.4-0.7-1.3-1.4-2.8-2l-6.1-2.6c-2.1-0.9-3.8-2.1-5.2-3.5
		s-2.1-3.4-2.1-5.8c0-2.1,0.5-3.9,1.6-5.5s2.6-2.8,4.4-3.7c1.9-0.9,3.9-1.3,6.2-1.3c2.4,0,4.6,0.3,6.7,0.9c2.1,0.6,3.8,1.3,5.1,2
		c-0.1,1.1-0.3,2.2-0.8,3.2c-0.5,1-1.1,1.9-1.8,2.6c-1.3-0.6-2.8-1.2-4.5-1.7c-1.7-0.5-3.3-0.8-4.6-0.8c-1.5,0-2.6,0.3-3.3,1
		s-1,1.4-1,2.2c0,0.7,0.2,1.3,0.7,1.9c0.5,0.5,1.3,1,2.4,1.5l6.2,2.6c1.6,0.7,3,1.5,4.1,2.5c1.1,1,2,2.1,2.6,3.4s0.9,2.6,0.9,4.1
		c0,2-0.5,3.9-1.5,5.5s-2.4,2.9-4.4,3.9c-2,1-4.4,1.4-7.4,1.4c-2.1,0-4.3-0.3-6.6-1S364.6,145.7,362.8,144.5z"/>
</g>
</svg>
